Coordinates
version=1
nRows=16
nColumns=40
inDegrees=yes

Units are S.I. units (second, meters, Newtons, ...)
If the header above contains a line with 'inDegrees', this indicates whether rotational values are in degrees (yes) or radians (no).

endheader
time	pelvis_tilt	pelvis_list	pelvis_rotation	pelvis_tx	pelvis_ty	pelvis_tz	hip_flexion_r	hip_adduction_r	hip_rotation_r	knee_angle_r	knee_angle_r_beta	ankle_angle_r	subtalar_angle_r	mtp_angle_r	hip_flexion_l	hip_adduction_l	hip_rotation_l	knee_angle_l	knee_angle_l_beta	ankle_angle_l	subtalar_angle_l	mtp_angle_l	lumbar_extension	lumbar_bending	lumbar_rotation	arm_flex_r	arm_add_r	arm_rot_r	elbow_flex_r	pro_sup_r	wrist_flex_r	wrist_dev_r	arm_flex_l	arm_add_l	arm_rot_l	elbow_flex_l	pro_sup_l	wrist_flex_l	wrist_dev_l
     14.95500000	    -84.00268183	     63.81472414	    -89.95799790	      0.83940008	      0.60673323	     -0.30428085	     45.00000012	     -9.99999999	      0.00000000	     60.00014062	      1.04720001	     -4.99999985	      0.00000000	      0.00000000	     45.00000012	     -9.99999999	      0.00000000	     60.00014062	      1.04720001	     -4.99999985	      0.00000000	      0.00000000	     67.91823677	     83.80798158	    -89.37275325	      4.05747579	    -33.59155968	     38.55085074	     87.24992939	     87.81334549	      0.00000000	      0.00000000	      1.97214102	    -24.25163830	     25.50426304	     75.03590391	     89.04165250	      0.00000000	      0.00000000
     14.96000000	    -83.85404595	     63.84758856	    -89.95788295	      0.83936816	      0.60640575	     -0.30424841	     45.00000012	     -9.99999999	      0.00000000	     60.00014062	      1.04720001	     -4.99999985	      0.00000000	      0.00000000	     45.00000012	     -9.99999999	      0.00000000	     60.00014062	      1.04720001	     -4.99999985	      0.00000000	      0.00000000	     68.03699957	     83.64876650	    -89.39956834	      3.94754366	    -33.62077672	     38.41804785	     87.33580675	     87.79121122	      0.00000000	      0.00000000	      2.03525049	    -24.24692621	     25.63283040	     74.99091021	     89.04311685	      0.00000000	      0.00000000
     14.96500000	    -83.99996936	     63.79469117	    -89.95809372	      0.83932281	      0.60675602	     -0.30422655	     45.00000012	     -9.99999999	      0.00000000	     60.00014062	      1.04720001	     -4.99999985	      0.00000000	      0.00000000	     45.00000012	     -9.99999999	      0.00000000	     60.00014062	      1.04720001	     -4.99999985	      0.00000000	      0.00000000	     67.92223655	     83.79396520	    -89.37495143	      3.99880839	    -33.58038637	     38.48432141	     87.26152194	     87.74035239	      0.00000000	      0.00000000	      1.99669664	    -24.24408984	     25.56238620	     74.97894369	     89.05149192	      0.00000000	      0.00000000
     14.97000000	    -83.85793498	     63.85815943	    -89.95789252	      0.83941811	      0.60645735	     -0.30425835	     45.00000012	     -9.99999999	      0.00000000	     60.00014062	      1.04720001	     -4.99999985	      0.00000000	      0.00000000	     45.00000012	     -9.99999999	      0.00000000	     60.00014062	      1.04720001	     -4.99999985	      0.00000000	      0.00000000	     68.05764319	     83.65920443	    -89.40460078	      3.93619734	    -33.61958550	     38.39866807	     87.31839331	     87.82735252	      0.00000000	      0.00000000	      2.05225740	    -24.23130350	     25.65401697	     74.95088969	     89.03620016	      0.00000000	      0.00000000
     14.97500000	    -83.92873133	     63.79442777	    -89.95810766	      0.83933279	      0.60661470	     -0.30421172	     45.00000012	     -9.99999999	      0.00000000	     60.00014062	      1.04720001	     -4.99999985	      0.00000000	      0.00000000	     45.00000012	     -9.99999999	      0.00000000	     60.00014062	      1.04720001	     -4.99999985	      0.00000000	      0.00000000	     67.93894673	     83.72857649	    -89.38804287	      3.99484427	    -33.60960178	     38.50739044	     87.30234127	     87.82074219	      0.00000000	      0.00000000	      1.98906262	    -24.24899610	     25.55953839	     75.00471304	     89.04019582	      0.00000000	      0.00000000
     14.98000000	    -83.97922505	     63.81170654	    -89.95810622	      0.83928964	      0.60671306	     -0.30426034	     45.00000012	     -9.99999999	      0.00000000	     60.00014062	      1.04720001	     -4.99999985	      0.00000000	      0.00000000	     45.00000012	     -9.99999999	      0.00000000	     60.00014062	      1.04720001	     -4.99999985	      0.00000000	      0.00000000	     67.93141557	     83.77287786	    -89.39313352	      4.03122815	    -33.58950743	     38.52182437	     87.25657340	     87.80857534	      0.00000000	      0.00000000	      1.94106876	    -24.24887162	     25.49358043	     75.06744147	     89.03921619	      0.00000000	      0.00000000
     14.98500000	    -84.19963626	     63.71302197	    -89.95810005	      0.83932679	      0.60720996	     -0.30418561	     45.00000012	     -9.99999999	      0.00000000	     60.00014062	      1.04720001	     -4.99999985	      0.00000000	      0.00000000	     45.00000012	     -9.99999999	      0.00000000	     60.00014062	      1.04720001	     -4.99999985	      0.00000000	      0.00000000	     67.89181405	     84.00681355	    -89.39231025	      3.93090311	    -33.53239900	     38.37708554	     87.26056204	     87.29184257	      0.00000000	      0.00000000	      2.08995277	    -24.30127775	     25.74207241	     74.96688631	     89.02020358	      0.00000000	      0.00000000
     14.99000000	    -83.81757057	     63.72401058	    -89.95808259	      0.83937013	      0.60637530	     -0.30403062	     45.00000012	     -9.99999999	      0.00000000	     60.00014062	      1.04720001	     -4.99999985	      0.00000000	      0.00000000	     45.00000012	     -9.99999999	      0.00000000	     60.00014062	      1.04720001	     -4.99999985	      0.00000000	      0.00000000	     67.90083862	     83.61841581	    -89.39067281	      3.93981933	    -33.60957834	     38.41555179	     87.31870468	     87.88998621	      0.00000000	      0.00000000	      2.06419828	    -24.23945411	     25.68770196	     74.93407372	     89.05205439	      0.00000000	      0.00000000
     14.99500000	    -83.97774683	     63.80163248	    -89.95810282	      0.83938177	      0.60670901	     -0.30430373	     45.00000012	     -9.99999999	      0.00000000	     60.00014062	      1.04720001	     -4.99999985	      0.00000000	      0.00000000	     45.00000012	     -9.99999999	      0.00000000	     60.00014062	      1.04720001	     -4.99999985	      0.00000000	      0.00000000	     67.92187365	     83.78473075	    -89.39105169	      4.02154074	    -33.57945217	     38.52054024	     87.27576208	     87.78854349	      0.00000000	      0.00000000	      1.96536862	    -24.24088184	     25.50061271	     75.03436009	     89.03466820	      0.00000000	      0.00000000
     15.00000000	    -83.91658077	     63.83514713	    -89.95804986	      0.83934369	      0.60656462	     -0.30433315	     45.00000012	     -9.99999999	      0.00000000	     60.00014062	      1.04720001	     -4.99999985	      0.00000000	      0.00000000	     45.00000012	     -9.99999999	      0.00000000	     60.00014062	      1.04720001	     -4.99999985	      0.00000000	      0.00000000	     67.97861050	     83.71517889	    -89.40587096	      4.00236446	    -33.59517868	     38.51989994	     87.30488000	     87.78372138	      0.00000000	      0.00000000	      1.96354816	    -24.23986598	     25.51665466	     75.02137852	     89.04637610	      0.00000000	      0.00000000
     15.00500000	    -83.98182747	     63.81638065	    -89.95810314	      0.83935692	      0.60670109	     -0.30436017	     45.00000012	     -9.99999999	      0.00000000	     60.00014062	      1.04720001	     -4.99999985	      0.00000000	      0.00000000	     45.00000012	     -9.99999999	      0.00000000	     60.00014062	      1.04720001	     -4.99999985	      0.00000000	      0.00000000	     67.93193172	     83.78001869	    -89.39260576	      4.02999020	    -33.57814440	     38.52092643	     87.27353333	     87.82547111	      0.00000000	      0.00000000	      1.95423987	    -24.24511186	     25.48178145	     75.02558489	     89.03667292	      0.00000000	      0.00000000
     15.01000000	    -84.12143316	     63.66042771	    -89.95815436	      0.83933840	      0.60701866	     -0.30410451	     45.00000012	     -9.99999999	      0.00000000	     60.00014062	      1.04720001	     -4.99999985	      0.00000000	      0.00000000	     45.00000012	     -9.99999999	      0.00000000	     60.00014062	      1.04720001	     -4.99999985	      0.00000000	      0.00000000	     67.85175461	     83.92652963	    -89.40156793	      3.91214931	    -33.53440532	     38.34183484	     87.28842235	     87.32615805	      0.00000000	      0.00000000	      2.10042587	    -24.28453447	     25.75305630	     74.92659578	     89.02370389	      0.00000000	      0.00000000
     15.01500000	    -83.84851558	     63.80723197	    -89.95811270	      0.83934311	      0.60640932	     -0.30423821	     45.00000012	     -9.99999999	      0.00000000	     60.00014062	      1.04720001	     -4.99999985	      0.00000000	      0.00000000	     45.00000012	     -9.99999999	      0.00000000	     60.00014062	      1.04720001	     -4.99999985	      0.00000000	      0.00000000	     67.99377726	     83.64355652	    -89.40621394	      3.90808967	    -33.61907571	     38.37817675	     87.36555751	     87.79026410	      0.00000000	      0.00000000	      2.03182002	    -24.22968051	     25.61693113	     74.96277885	     89.04689350	      0.00000000	      0.00000000
     15.02000000	    -83.84270145	     63.83131893	    -89.95810074	      0.83936420	      0.60642674	     -0.30432862	     45.00000012	     -9.99999999	      0.00000000	     60.00014062	      1.04720001	     -4.99999985	      0.00000000	      0.00000000	     45.00000012	     -9.99999999	      0.00000000	     60.00014062	      1.04720001	     -4.99999985	      0.00000000	      0.00000000	     68.03007289	     83.63736931	    -89.41339961	      3.89072072	    -33.59935102	     38.34980516	     87.35788601	     87.80686732	      0.00000000	      0.00000000	      2.04829340	    -24.23205620	     25.64618080	     74.93375405	     89.03973654	      0.00000000	      0.00000000
     15.02500000	    -83.92550097	     63.76358238	    -89.95815497	      0.83932880	      0.60658923	     -0.30426037	     45.00000012	     -9.99999999	      0.00000000	     60.00014062	      1.04720001	     -4.99999985	      0.00000000	      0.00000000	     45.00000012	     -9.99999999	      0.00000000	     60.00014062	      1.04720001	     -4.99999985	      0.00000000	      0.00000000	     67.90431155	     83.72427885	    -89.40069384	      3.97690241	    -33.58844121	     38.46764299	     87.30549632	     87.84728904	      0.00000000	      0.00000000	      1.97764020	    -24.24225245	     25.54298236	     75.00689309	     89.03220403	      0.00000000	      0.00000000
     15.03000000	    -83.85633545	     63.80665348	    -89.95807772	      0.83935296	      0.60646150	     -0.30429737	     45.00000012	     -9.99999999	      0.00000000	     60.00014062	      1.04720001	     -4.99999985	      0.00000000	      0.00000000	     45.00000012	     -9.99999999	      0.00000000	     60.00014062	      1.04720001	     -4.99999985	      0.00000000	      0.00000000	     68.00330041	     83.65018358	    -89.41255576	      3.87569291	    -33.59677287	     38.35626804	     87.35849980	     87.83569540	      0.00000000	      0.00000000	      2.04268673	    -24.22593143	     25.64137595	     74.95226925	     89.03712570	      0.00000000	      0.00000000
